<svg xmlns="http://www.w3.org/2000/svg" viewBox="0 -0.5 14 14" shape-rendering="crispEdges">
<metadata>Made with Pixels to Svg https://codepen.io/shshaw/pen/XbxvNj</metadata>
<path stroke="#0d0f13" d="M0 0h14M4 1h1M9 1h1M11 1h2M1 2h4M6 2h4M12 2h1M1 3h1M4 3h1M8 3h2M1 4h2M4 4h1M6 4h4M11 4h1M4 5h1M6 5h4M11 5h2M0 6h14M0 7h14M4 8h1M8 8h2M13 8h1M1 9h4M6 9h2M9 9h1M11 9h2M1 10h1M4 10h1M6 10h2M9 10h1M13 10h1M1 11h2M4 11h1M6 11h2M9 11h1M11 11h2M4 12h1M8 12h2M13 12h1M0 13h14" />
<path stroke="#76b900" d="M0 1h4M5 1h4M10 1h1M13 1h1M0 2h1M5 2h1M10 2h2M13 2h1M0 3h1M2 3h2M5 3h3M10 3h4M0 4h1M3 4h1M5 4h1M10 4h1M12 4h2M0 5h4M5 5h1M10 5h1M13 5h1" />
<path stroke="#ffffff" d="M0 8h4M5 8h3M10 8h3M0 9h1M5 9h1M8 9h1M10 9h1M13 9h1M0 10h1M2 10h2M5 10h1M8 10h1M10 10h3M0 11h1M3 11h1M5 11h1M8 11h1M10 11h1M13 11h1M0 12h4M5 12h3M10 12h3" />
</svg>